<svg height="597pt" viewBox="-58 -18 597 597.33331" width="597pt" xmlns="http://www.w3.org/2000/svg"><path d="m277.5 180v-20h-280v400h180v-370c0-5.523438 4.476562-10 10-10zm-240 60c0 5.523438-4.476562 10-10 10s-10-4.476562-10-10v-60c0-5.523438 4.476562-10 10-10s10 4.476562 10 10zm0 0"/><path d="m477.5 260h-280v300h280zm-140 270c-60.753906 0-110-49.25-110-110s49.246094-110 110-110c60.75 0 110 49.25 110 110-.074219 60.722656-49.277344 109.925781-110 110zm0 0"/><path d="m337.5 330c-49.707031 0-90 40.292969-90 90s40.292969 90 90 90 90-40.292969 90-90c-.054688-49.683594-40.316406-89.945312-90-90zm0 33.328125c-31.285156.035156-56.636719 25.386719-56.671875 56.671875 0 5.523438-4.476563 10-10 10-5.519531 0-10-4.476562-10-10 .046875-42.324219 34.347656-76.625 76.671875-76.671875 5.523438 0 10 4.480469 10 10 0 5.523437-4.476562 10-10 10zm0 0"/><path d="m277.5 0h-280v140h280zm-240 120c0 5.523438-4.476562 10-10 10s-10-4.476562-10-10v-60c0-5.523438 4.476562-10 10-10s10 4.476562 10 10zm0 0"/><path d="m477.5 200h-230v40h230zm-180 30h-20c-5.523438 0-10-4.476562-10-10s4.476562-10 10-10h20c5.523438 0 10 4.476562 10 10s-4.476562 10-10 10zm50 0h-20c-5.523438 0-10-4.476562-10-10s4.476562-10 10-10h20c5.523438 0 10 4.476562 10 10s-4.476562 10-10 10zm0 0"/><path d="m197.5 200h30v40h-30zm0 0"/></svg>